; NON-PLATED HOLES START AT T1
; THROUGH (PLATED) HOLES START AT T100
M48
INCH
T100C0.038000
T101C0.015748
%
T100
X022134Y009197
X015182Y000714
X015230Y005531
X008178Y000709
X011219Y006391
X015230Y003531
X022182Y000714
X015230Y006531
X008143Y009205
X017182Y000714
X016182Y000714
X001143Y009205
X004178Y000709
X001178Y000709
X018134Y009197
X010219Y006391
X019134Y009197
X007143Y009205
X020134Y009197
X023182Y000714
X010219Y003391
X021134Y009197
X024134Y009197
X003143Y009205
X010219Y004391
X014230Y003531
X021182Y000714
X011219Y004391
X019182Y000714
X006143Y009205
X020182Y000714
X002178Y000709
X010219Y005391
X011219Y005391
X004143Y009205
X009143Y009205
X024182Y000714
X018182Y000714
X007178Y000709
X006178Y000709
X023134Y009197
X005178Y000709
X015230Y004531
X002143Y009205
X011219Y003391
X014230Y005531
X014230Y004531
X003178Y000709
X014230Y006531
X005143Y009205
X017134Y009197
X010143Y009205
T101
X005592Y007356
X005630Y002053
X013597Y007241
X013667Y002280
X013565Y008377
X012796Y007234
X007081Y005936
X012924Y003651
X012884Y001167
X012226Y003393
X015110Y002669
X011279Y001151
X004791Y002212
T00
M30
