G04 MADE WITH FRITZING*
G04 WWW.FRITZING.ORG*
G04 DOUBLE SIDED*
G04 HOLES PLATED*
G04 CONTOUR ON CENTER OF CONTOUR VECTOR*
%ASAXBY*%
%FSLAX23Y23*%
%MOIN*%
%OFA0B0*%
%SFA1.0B1.0*%
%ADD10C,0.078000*%
%ADD11C,0.039370*%
%ADD12C,0.012000*%
%LNCOPPER0*%
G90*
G70*
G54D10*
X1122Y639D03*
X1122Y539D03*
X1122Y439D03*
X1122Y339D03*
X1122Y639D03*
X1122Y539D03*
X1122Y439D03*
X1122Y339D03*
X1022Y339D03*
X1022Y439D03*
X1022Y539D03*
X1022Y639D03*
X1122Y639D03*
X1122Y539D03*
X1122Y439D03*
X1122Y339D03*
X1122Y639D03*
X1122Y539D03*
X1122Y439D03*
X1122Y339D03*
X1022Y339D03*
X1022Y439D03*
X1022Y539D03*
X1022Y639D03*
X1523Y653D03*
X1523Y553D03*
X1523Y453D03*
X1523Y353D03*
X1523Y653D03*
X1523Y553D03*
X1523Y453D03*
X1523Y353D03*
X1423Y353D03*
X1423Y453D03*
X1423Y553D03*
X1423Y653D03*
X1523Y653D03*
X1523Y553D03*
X1523Y453D03*
X1523Y353D03*
X1523Y653D03*
X1523Y553D03*
X1523Y453D03*
X1523Y353D03*
X1423Y353D03*
X1423Y453D03*
X1423Y553D03*
X1423Y653D03*
X1518Y71D03*
X1618Y71D03*
X1718Y71D03*
X1818Y71D03*
X1918Y71D03*
X2018Y71D03*
X2118Y71D03*
X2218Y71D03*
X2318Y71D03*
X2418Y71D03*
X1014Y921D03*
X914Y921D03*
X814Y921D03*
X714Y921D03*
X614Y921D03*
X514Y921D03*
X414Y921D03*
X314Y921D03*
X214Y921D03*
X114Y921D03*
X2413Y920D03*
X2313Y920D03*
X2213Y920D03*
X2113Y920D03*
X2013Y920D03*
X1913Y920D03*
X1813Y920D03*
X1713Y920D03*
X118Y71D03*
X218Y71D03*
X318Y71D03*
X418Y71D03*
X518Y71D03*
X618Y71D03*
X718Y71D03*
X818Y71D03*
G54D11*
X708Y594D03*
X1128Y115D03*
X1511Y267D03*
X559Y736D03*
X1367Y228D03*
X1292Y365D03*
X1223Y339D03*
X1288Y117D03*
X563Y205D03*
X1280Y723D03*
X1360Y724D03*
X1357Y838D03*
X479Y221D03*
G54D12*
X2115Y362D02*
X1542Y353D01*
D02*
X2113Y901D02*
X2115Y362D01*
D02*
X1436Y59D02*
X1023Y58D01*
D02*
X1499Y69D02*
X1436Y59D01*
D02*
X1023Y58D02*
X1022Y320D01*
D02*
X708Y586D02*
X707Y332D01*
D02*
X707Y332D02*
X1003Y339D01*
D02*
X1694Y920D02*
X1424Y919D01*
D02*
X1424Y919D02*
X1423Y672D01*
D02*
X1128Y123D02*
X1122Y320D01*
D02*
X1407Y363D02*
X1376Y381D01*
D02*
X1376Y381D02*
X1335Y429D01*
D02*
X1335Y429D02*
X1141Y438D01*
D02*
X618Y90D02*
X622Y653D01*
D02*
X622Y653D02*
X622Y704D01*
D02*
X622Y704D02*
X1190Y713D01*
D02*
X1190Y713D02*
X1203Y431D01*
D02*
X1203Y431D02*
X1141Y437D01*
D02*
X1430Y267D02*
X1425Y334D01*
D02*
X1503Y267D02*
X1430Y267D01*
D02*
X566Y739D02*
X596Y753D01*
D02*
X596Y753D02*
X1226Y753D01*
D02*
X1226Y753D02*
X1239Y553D01*
D02*
X1239Y553D02*
X1404Y553D01*
D02*
X1363Y235D02*
X1352Y251D01*
D02*
X1352Y251D02*
X1311Y336D01*
D02*
X1311Y336D02*
X1297Y359D01*
D02*
X1223Y331D02*
X1223Y113D01*
D02*
X1223Y113D02*
X1281Y116D01*
D02*
X557Y476D02*
X475Y478D01*
D02*
X475Y478D02*
X475Y795D01*
D02*
X563Y213D02*
X557Y476D01*
D02*
X475Y795D02*
X1276Y801D01*
D02*
X1276Y801D02*
X1279Y731D01*
D02*
X2214Y901D02*
X2219Y177D01*
D02*
X2219Y177D02*
X1226Y170D01*
D02*
X1226Y170D02*
X1223Y331D01*
D02*
X317Y90D02*
X314Y164D01*
D02*
X561Y164D02*
X563Y197D01*
D02*
X314Y164D02*
X561Y164D01*
D02*
X1360Y732D02*
X1357Y830D01*
D02*
X2013Y551D02*
X1542Y553D01*
D02*
X2013Y901D02*
X2013Y551D01*
D02*
X353Y394D02*
X348Y843D01*
D02*
X478Y395D02*
X353Y394D01*
D02*
X479Y229D02*
X478Y395D01*
D02*
X1324Y848D02*
X1349Y840D01*
D02*
X348Y843D02*
X1324Y848D01*
G04 End of Copper0*
M02*