G04 MADE WITH FRITZING*
G04 WWW.FRITZING.ORG*
G04 DOUBLE SIDED*
G04 HOLES PLATED*
G04 CONTOUR ON CENTER OF CONTOUR VECTOR*
%ASAXBY*%
%FSLAX23Y23*%
%MOIN*%
%OFA0B0*%
%SFA1.0B1.0*%
%ADD10C,0.078000*%
%ADD11C,0.039370*%
%ADD12C,0.012000*%
%LNCOPPER1*%
G90*
G70*
G54D10*
X1122Y639D03*
X1122Y539D03*
X1122Y439D03*
X1122Y339D03*
X1122Y639D03*
X1122Y539D03*
X1122Y439D03*
X1122Y339D03*
X1022Y339D03*
X1022Y439D03*
X1022Y539D03*
X1022Y639D03*
X1122Y639D03*
X1122Y539D03*
X1122Y439D03*
X1122Y339D03*
X1122Y639D03*
X1122Y539D03*
X1122Y439D03*
X1122Y339D03*
X1022Y339D03*
X1022Y439D03*
X1022Y539D03*
X1022Y639D03*
X1523Y653D03*
X1523Y553D03*
X1523Y453D03*
X1523Y353D03*
X1523Y653D03*
X1523Y553D03*
X1523Y453D03*
X1523Y353D03*
X1423Y353D03*
X1423Y453D03*
X1423Y553D03*
X1423Y653D03*
X1523Y653D03*
X1523Y553D03*
X1523Y453D03*
X1523Y353D03*
X1523Y653D03*
X1523Y553D03*
X1523Y453D03*
X1523Y353D03*
X1423Y353D03*
X1423Y453D03*
X1423Y553D03*
X1423Y653D03*
X118Y71D03*
X218Y71D03*
X318Y71D03*
X418Y71D03*
X518Y71D03*
X618Y71D03*
X718Y71D03*
X818Y71D03*
X2413Y920D03*
X2313Y920D03*
X2213Y920D03*
X2113Y920D03*
X2013Y920D03*
X1913Y920D03*
X1813Y920D03*
X1713Y920D03*
X1014Y921D03*
X914Y921D03*
X814Y921D03*
X714Y921D03*
X614Y921D03*
X514Y921D03*
X414Y921D03*
X314Y921D03*
X214Y921D03*
X114Y921D03*
G54D11*
X1280Y723D03*
X563Y205D03*
X1288Y117D03*
X1223Y339D03*
X1292Y365D03*
X1367Y228D03*
X559Y736D03*
X708Y594D03*
X1128Y115D03*
X1511Y267D03*
X1357Y838D03*
X1360Y724D03*
G54D10*
X1518Y71D03*
X1618Y71D03*
X1718Y71D03*
X1818Y71D03*
X1918Y71D03*
X2018Y71D03*
X2118Y71D03*
X2218Y71D03*
X2318Y71D03*
X2418Y71D03*
G54D11*
X479Y221D03*
G54D12*
X1003Y438D02*
X925Y436D01*
D02*
X925Y436D02*
X925Y300D01*
D02*
X925Y300D02*
X953Y262D01*
D02*
X1365Y286D02*
X1445Y273D01*
D02*
X953Y262D02*
X1184Y262D01*
D02*
X1184Y262D02*
X1291Y259D01*
D02*
X1291Y259D02*
X1365Y286D01*
D02*
X1445Y273D02*
X1510Y340D01*
D02*
X407Y87D02*
X395Y104D01*
D02*
X395Y104D02*
X393Y299D01*
D02*
X393Y299D02*
X925Y300D01*
D02*
X1014Y902D02*
X1015Y707D01*
D02*
X1015Y707D02*
X716Y596D01*
D02*
X1523Y672D02*
X1523Y774D01*
D02*
X1523Y774D02*
X1233Y785D01*
D02*
X1166Y713D02*
X1015Y707D01*
D02*
X1233Y785D02*
X1166Y713D01*
D02*
X1134Y354D02*
X1363Y622D01*
D02*
X1363Y622D02*
X1406Y644D01*
D02*
X1128Y72D02*
X1128Y107D01*
D02*
X837Y71D02*
X1128Y72D01*
D02*
X1913Y901D02*
X1914Y271D01*
D02*
X1914Y271D02*
X1519Y267D01*
D02*
X1003Y539D02*
X558Y532D01*
D02*
X558Y532D02*
X559Y728D01*
D02*
X231Y85D02*
X246Y102D01*
D02*
X244Y528D02*
X1003Y539D01*
D02*
X246Y102D02*
X244Y528D01*
D02*
X2313Y901D02*
X2315Y197D01*
D02*
X2315Y197D02*
X1436Y194D01*
D02*
X1436Y194D02*
X1374Y225D01*
D02*
X1290Y373D02*
X1274Y417D01*
D02*
X1274Y417D02*
X1369Y531D01*
D02*
X1369Y531D02*
X1405Y546D01*
D02*
X1407Y443D02*
X1356Y412D01*
D02*
X1356Y412D02*
X1335Y322D01*
D02*
X1335Y322D02*
X1264Y308D01*
D02*
X1264Y308D02*
X1229Y335D01*
D02*
X1288Y125D02*
X1287Y212D01*
D02*
X1287Y212D02*
X571Y205D01*
D02*
X1189Y639D02*
X1141Y639D01*
D02*
X1256Y713D02*
X1189Y639D01*
D02*
X1272Y720D02*
X1256Y713D01*
D02*
X1141Y540D02*
X1182Y541D01*
D02*
X1182Y541D02*
X1354Y718D01*
D02*
X1364Y838D02*
X1621Y835D01*
D02*
X1621Y835D02*
X1619Y610D01*
D02*
X1619Y610D02*
X1539Y563D01*
D02*
X487Y194D02*
X486Y87D01*
D02*
X486Y87D02*
X501Y79D01*
D02*
X481Y214D02*
X487Y194D01*
G04 End of Copper1*
M02*